<?xml version="1.0" encoding="UTF-8"?><svg id="Layer_2" xmlns="http://www.w3.org/2000/svg" viewBox="0 0 328.51 328.56"><g id="Layer_1-2"><g><path d="M0,254.72c0-60.31,0-120.62,0-180.93,.21-.47,.55-.93,.61-1.41,1.12-9.74,3.88-19.01,8.49-27.64C21.57,21.42,40.85,7.04,66.67,1.41c2.36-.51,4.74-.94,7.11-1.41,60.31,0,120.62,0,180.93,0,.68,.23,1.35,.51,2.05,.67,4.78,1.07,9.69,1.71,14.33,3.23,34.86,11.37,57.33,42.46,57.39,79.15,.02,14.76,0,29.51,0,44.27,0,39.35-.04,78.69,.02,118.04,.02,11.7-1.83,23.08-6.87,33.6-15.41,32.24-41.07,49.24-76.93,49.45-53.57,.31-107.14,.02-160.7,.12-13.94,.02-27.2-2.66-39.48-9.24-23.22-12.44-37.52-31.72-43.12-57.45-.51-2.36-.94-4.75-1.41-7.12Zm300.94-90.45h.05c0-26.73,.02-53.45-.03-80.18,0-3.4-.24-6.83-.65-10.21-3.03-24.88-26.29-46.16-51.29-46.26-56.02-.22-112.04-.09-168.06-.07-2.33,0-4.68,.3-7,.61-25.43,3.36-46.26,26.32-46.35,51.88-.2,55.91-.08,111.83-.05,167.74,0,2.23,.31,4.47,.59,6.68,3.23,25.35,26.25,46.32,51.81,46.43,55.8,.22,111.61,.09,167.42,.06,2.44,0,4.89-.32,7.32-.63,24.91-3.16,45.97-26.36,46.18-51.39,.23-28.22,.05-56.45,.05-84.67Z"/><path d="M246.36,164.27c-.01,45.34-36.8,82.11-82.13,82.1-45.34-.01-82.1-36.79-82.09-82.13,.01-45.36,36.77-82.1,82.13-82.09,45.35,0,82.1,36.78,82.09,82.13Zm-27.49,.27c.15-30.22-24.07-54.73-54.25-54.91-30.24-.18-54.76,23.97-54.98,54.16-.23,30.36,24.08,54.96,54.4,55.07,30.23,.1,54.68-24.12,54.83-54.33Z"/><path d="M252.85,95.75c-11.52-.29-20.44-9.59-20.09-20.93,.35-11.32,9.66-20.39,20.68-20.15,11.32,.25,20.73,9.89,20.4,20.91-.34,11.44-9.73,20.46-20.99,20.17Z"/></g></g></svg>