<?xml version="1.0" encoding="UTF-8"?><svg id="Layer_2" xmlns="http://www.w3.org/2000/svg" viewBox="0 0 379.29 311.94"><g id="Layer_1-2"><path d="M89.08,242.67c-14.4-6.34-26.39-15.03-35.13-27.41-4.77-6.76-8.58-14.28-12.11-21.79-3.14-6.67-2.45-9.18,1.68-15.48-9.8-8.71-17.48-19.03-22.57-31.2-4.03-9.63-6.38-19.62-6.5-30.11-.09-8.37,2-11.67,9.65-14.9-2.06-5.56-4.51-11-6.11-16.68-6.46-22.89-3.26-44.66,8.43-65.23,4.55-8.01,14.27-8.69,20.33-1.49,24.2,28.75,54.11,49.22,89.76,60.93,12.23,4.02,24.98,6.45,37.79,9.68,.59-6.69,.6-12.32,1.65-17.75,7.16-36.98,30.18-59.34,65.85-68.47,27.19-6.96,52.32-.68,73.86,17.32,6.8,5.68,13.83,6.63,21.77,6.03,8.64-.65,16.31-4.13,23.83-8.18,8.87-4.77,18.3,1.14,18.04,11.17-.07,2.61-.22,5.25-.69,7.81-3.57,19.24-13.7,34.88-27.37,48.33-3.32,3.27-4.53,6.4-4.57,10.97-.95,101.44-73.17,189.67-172.37,210.36-59.42,12.39-115.38,3.36-167.44-28.33-3.85-2.34-6.54-5.33-6.82-10.04-.48-7.95,5.73-13.71,13.77-12.83,24.83,2.73,48.67-1.05,71.57-10.94,1.1-.48,2.17-1.04,3.71-1.79Zm-26.43,35.09c.39,.15,.84,.34,1.3,.49,30.96,9.85,62.47,11.98,94.52,6.83,39.89-6.41,74.98-22.95,103.92-51.17,41.22-40.19,61.4-89.35,59.93-147.1-.15-5.9,1.75-10.26,6.53-13.77,7.85-5.76,13.78-13.31,18.78-21.6,.41-.67,.61-1.47,.99-2.43-.83,0-1.32-.01-1.81,0-8.07,.22-16.16,.9-24.21,.53-7.3-.34-13.76-2.94-19.37-8.39-13.46-13.07-29.75-18.35-48.56-16.32-31.76,3.43-63.62,32.73-54.15,73.56,1.9,8.18-3.81,15.27-12.15,14.9-7.45-.33-14.92-1.08-22.3-2.17-39.58-5.85-74.96-21.45-106.21-46.38-6.5-5.18-12.58-10.89-18.86-16.37-2.36,6.09-2.66,18.21-.74,26.56,3.53,15.4,11.9,27.5,24.74,36.6,5.99,4.25,7.88,8.97,6.04,14.68-1.81,5.62-6.32,8.49-13.54,8.1-5.29-.29-10.56-1.07-17.22-1.78,4.06,6.85,7.19,13.4,11.47,19.08,8.63,11.44,20.3,18.59,34.31,21.77,4.9,1.11,8.93,3.2,10.63,8.29,2.53,7.57-1.74,14.33-10.39,16.17-4.4,.94-8.88,1.52-13.33,2.26l-1.06,1.54c3.58,3.08,7.09,6.23,10.74,9.22,10.75,8.79,23,13.69,36.95,14.28,6.97,.3,11.34,3.4,12.88,8.83,1.55,5.47-.33,9.99-5.85,14.14-10.11,7.59-20.87,14.16-32.64,18.76-10.24,4-20.77,7.25-31.37,10.9Z"/></g></svg>