<?xml version="1.0" encoding="UTF-8"?><svg id="Layer_2" xmlns="http://www.w3.org/2000/svg" viewBox="0 0 382.2 221.7"><g id="Layer_1-2"><g><path d="M60,5.4H.3v3c8.4,.6,12,6.9,12,15V197.7c0,8.1-3.9,13.8-12.3,14.7v3H33.3v-3c-8.1-.6-12-6.6-12-14.4V77.38h9v.02c19.5,1.5,25.5,10.5,30,18h3l-4.8-14.7c-1.5-4.8-3.6-6-7.2-6.3H21.3V8.4h27c9.9,.3,15.3,9,27,24h3l-7.5-21c-1.8-5.4-3-5.7-10.8-6Z"/><path d="M138.3,212.4h-27V5.4h-21v3c8.4,.9,12,6.9,12,15V197.1c0,8.1-3.6,14.7-12,15.3v3h61.2c7.8-.3,7.5-.6,9.3-6l7.5-21h-3c-11.7,15-17.1,23.7-27,24Z"/><path d="M272.1,0c-61.8,0-111,48.6-111,110.4s48.3,111.3,110.7,111.3,110.7-49.8,110.4-111.3c-.3-61.5-48.6-110.4-110.1-110.4Zm-.3,218.7c-59.7,0-99-45.3-98.7-108.3,.3-62.1,39-107.4,99-107.4s97.8,45.3,98.1,107.1c.3,62.1-38.4,108.6-98.4,108.6Z"/></g></g></svg>