<?xml version="1.0" encoding="UTF-8"?><svg id="Layer_2" xmlns="http://www.w3.org/2000/svg" viewBox="0 0 324.32 324.32"><g id="Layer_1-2"><path d="M151.39,324.32c-6.03-.85-12.17-1.23-18.06-2.66-10.2-2.47-20.35-5.28-30.33-8.55-6.46-2.12-9.57-8.31-7.94-14.99,4.46-18.19,9.19-36.31,13.83-54.45,8.9-34.86,17.81-69.73,26.72-104.59,2.23-8.71,9.68-13.15,17.41-10.38,6.57,2.35,9.9,8.9,8.06,16.15-5.88,23.15-11.81,46.28-17.72,69.43-.05,.2-.06,.41-.21,1.47,6.14,.57,12.25,1.6,18.36,1.61,23.86,.04,43.99-8.48,59.58-26.89,18.32-21.64,18.69-54.25,.42-76.07-18.81-22.46-43.34-30.5-71.88-26.57-18.88,2.6-34.69,11.33-46.9,26.18-16.89,20.55-18.38,49.01-3.72,71.24,2.48,3.75,4.82,7.47,3.83,12.28-1.19,5.78-4.73,9.42-10.42,10.58-5.34,1.09-9.86-.87-13.02-5.25-7.83-10.83-13.28-22.78-15.3-36.02-4.95-32.31,5.45-59.33,29.63-80.83,20.55-18.27,45.07-26.21,72.49-25.14,28.31,1.1,52.58,11.64,71.67,32.59,18.82,20.65,26.65,45.14,21.89,72.98-4.82,28.12-20.79,48.61-44.91,62.99-19.86,11.84-41.55,15.83-64.43,13.67-4.49-.42-8.92-1.41-13.84-2.22-4.38,17.07-8.78,34.22-13.34,52.02,6.99,1.41,13.71,3.17,20.54,4.07,21.77,2.89,43.11,.85,63.85-6.59,25.19-9.04,45.81-24.32,62.25-45.38,14.73-18.88,23.8-40.2,26.96-63.86,4.76-35.58-2.97-68.35-23.94-97.61-19.52-27.24-45.56-45.46-78.23-53.32-38.69-9.31-75.11-3.1-108.13,19.15-30.82,20.76-50.46,49.67-57.74,86.26-6.47,32.5-1.42,63.47,14.51,92.62,5.35,9.78,12.14,18.47,19.4,26.87,5.73,6.64,4.74,15.27-2.02,19.86-5.63,3.82-12.68,3.09-17.34-2.53-6.39-7.7-12.84-15.43-18.3-23.79C12.29,229.13,4.79,207.55,1.43,184.52,.87,180.68,.47,176.81,0,172.96c0-7.18,0-14.36,0-21.53,.49-3.85,.89-7.71,1.47-11.55C7.95,97.12,27.83,61.89,61.75,35.09,97.69,6.68,138.87-4.49,184.2,1.62c42.85,5.79,78.05,26.1,104.92,59.97,28.54,35.99,39.57,77.22,33.67,122.69-4.16,32.08-17.29,60.41-38.73,84.66-26.03,29.43-58.52,47.37-97.41,53.49-4.56,.72-9.14,1.26-13.71,1.88h-21.54Z"/></g></svg>